<svg width="250" height="250" viewBox="0 0 250 250" fill="none" xmlns="http://www.w3.org/2000/svg">
<g id="circle-2.14e8ba4e8bbb63db7cb392fa87f85420.svg">
<path id="Vector" d="M148.863 170.919C174.52 157.447 184.399 125.725 170.927 100.066C157.454 74.4083 125.732 64.5298 100.074 78.0023C74.4161 91.4749 64.5377 123.197 78.0102 148.854C91.4826 174.513 123.204 184.391 148.863 170.919Z" stroke="#D91966" stroke-width="2.36967" stroke-miterlimit="10"/>
<path id="Vector_2" d="M178.622 169.767C203.643 139.857 199.679 95.3253 169.768 70.3047C139.857 45.2842 95.3262 49.2486 70.3056 79.1595C45.2851 109.07 49.2494 153.601 79.1603 178.622C109.071 203.642 153.602 199.678 178.622 169.767Z" stroke="#D91966" stroke-width="2.36967" stroke-miterlimit="10"/>
<path id="Vector_3" d="M153.076 178.944C123.031 194.72 85.7537 183.111 69.9777 153.066C54.2018 123.021 65.8104 85.7437 95.8555 69.9678C125.9 54.1918 163.178 65.8004 178.954 95.8455C194.73 125.891 183.116 163.171 153.076 178.944Z" stroke="#D91966" stroke-width="2.36967" stroke-miterlimit="10"/>
<path id="Vector_4" d="M148.863 170.919C174.52 157.447 184.399 125.725 170.927 100.066C157.454 74.4083 125.732 64.5298 100.074 78.0023C74.4161 91.4749 64.5377 123.197 78.0102 148.854C91.4826 174.513 123.204 184.391 148.863 170.919Z" stroke="#D91966" stroke-width="2.36967" stroke-miterlimit="10"/>
<path id="Vector_5" d="M144.339 162.303C165.238 151.329 173.284 125.492 162.31 104.592C151.337 83.6932 125.499 75.6469 104.599 86.6206C83.7001 97.5942 75.6539 123.432 86.6276 144.332C97.6012 165.231 123.44 173.277 144.339 162.303Z" stroke="#D91966" stroke-width="2.36967" stroke-miterlimit="10"/>
<path id="Vector_6" d="M140.194 154.41C156.735 145.725 163.102 125.277 154.418 108.737C145.733 92.1972 125.284 85.8293 108.744 94.514C92.2044 103.199 85.8365 123.647 94.5212 140.187C103.206 156.727 123.654 163.095 140.194 154.41Z" stroke="#D91966" stroke-width="2.36967" stroke-miterlimit="10"/>
</g>
</svg>
